<?xml version="1.0" standalone="no"?>
<!DOCTYPE svg PUBLIC "-//W3C//DTD SVG 20010904//EN"
 "http://www.w3.org/TR/2001/REC-SVG-20010904/DTD/svg10.dtd">
<svg version="1.0" xmlns="http://www.w3.org/2000/svg"
 width="1744.000000pt" height="1744.000000pt" viewBox="0 0 1744.000000 1744.000000"
 preserveAspectRatio="xMidYMid meet">
<metadata>
Created by potrace 1.14, written by Peter Selinger 2001-2017
</metadata>
<g transform="translate(0.000000,1744.000000) scale(0.100000,-0.100000)"
fill="#000000" stroke="none">
<path d="M7670 16289 c-763 -66 -1433 -323 -1970 -756 -112 -90 -226 -200
-407 -393 l-61 -64 -53 41 c-141 108 -373 221 -551 267 -185 48 -303 61 -563
60 -347 -1 -585 -35 -1125 -164 -472 -112 -555 -124 -855 -124 -271 0 -390 13
-611 69 -287 73 -583 218 -809 395 -100 78 -127 86 -161 49 -16 -18 -19 -41
-23 -168 -12 -536 101 -1145 315 -1688 176 -448 474 -963 761 -1316 35 -43 63
-82 63 -87 0 -5 -33 6 -74 25 -139 63 -182 56 -180 -32 2 -53 100 -335 178
-510 179 -402 428 -805 675 -1093 207 -241 383 -428 501 -533 244 -218 516
-431 774 -606 138 -93 147 -101 115 -101 -65 0 -95 -41 -67 -93 15 -29 222
-246 304 -319 l63 -57 -63 -45 c-88 -63 -156 -142 -212 -247 -42 -80 -50 -89
-75 -89 -93 0 -352 137 -499 265 -93 80 -140 89 -301 59 -316 -58 -555 -202
-774 -465 -126 -151 -238 -338 -360 -602 -34 -72 -69 -134 -80 -140 -13 -8
-82 -12 -205 -12 -208 1 -267 11 -485 85 -65 22 -138 40 -161 40 -37 0 -47 -5
-79 -42 -75 -88 -200 -287 -275 -443 -159 -326 -256 -659 -312 -1075 -18 -137
-22 -215 -22 -455 -1 -180 4 -330 12 -395 47 -380 130 -677 267 -955 131 -265
170 -311 286 -341 77 -20 255 -14 332 10 193 62 365 205 582 485 82 106 188
223 335 371 288 291 430 394 643 469 96 33 110 35 227 36 97 0 137 -4 180 -19
179 -61 334 -180 423 -322 50 -80 177 -332 257 -507 153 -339 259 -623 448
-1207 102 -314 175 -505 271 -705 342 -715 834 -1281 1329 -1529 267 -134 488
-184 762 -173 210 9 348 44 548 137 179 85 325 190 491 353 186 182 310 352
521 712 198 338 446 714 653 990 556 740 1088 1108 1602 1106 244 0 468 -74
700 -229 181 -122 461 -393 662 -642 116 -144 296 -299 433 -373 304 -166 661
-127 1155 124 439 223 739 529 1044 1068 124 219 143 259 225 475 91 238 145
358 248 556 186 359 413 695 641 950 80 89 98 124 132 250 52 197 77 380 82
607 6 236 -4 363 -44 563 -42 208 -135 492 -175 532 -26 26 -56 22 -300 -48
-236 -67 -365 -94 -483 -101 l-90 -6 -33 114 c-94 322 -230 600 -418 849 -100
133 -211 245 -265 269 -73 32 -179 44 -354 39 -88 -3 -187 -2 -220 1 l-59 6
149 70 c358 168 835 465 1134 708 358 289 740 676 1046 1057 169 211 267 346
431 595 184 280 196 308 152 339 -30 21 -72 20 -203 -4 -202 -37 -207 -53 59
213 313 313 506 546 731 887 358 541 609 1103 816 1820 72 253 86 360 50 380
-32 17 -70 6 -211 -60 -260 -121 -589 -230 -873 -289 -636 -133 -1476 -151
-2227 -50 -168 22 -186 25 -500 84 -516 97 -736 120 -1150 119 -338 0 -450
-10 -695 -60 -269 -56 -647 -214 -729 -304 -21 -23 -43 -39 -51 -36 -7 2 -40
40 -73 83 -277 361 -681 679 -1155 908 -402 194 -792 308 -1277 371 -148 19
-650 27 -810 13z m780 -144 c969 -117 1816 -559 2352 -1227 304 -379 505 -803
623 -1317 26 -113 47 -260 39 -273 -3 -4 -58 -45 -122 -90 -376 -266 -635
-670 -718 -1121 -25 -131 -25 -419 -1 -547 73 -390 286 -704 572 -841 132 -64
216 -81 392 -83 l153 -1 0 -25 c0 -52 -30 -218 -54 -301 -112 -385 -418 -687
-833 -823 -119 -40 -133 -53 -133 -130 0 -95 -17 -169 -71 -302 -52 -130 -90
-261 -115 -396 -12 -68 -31 -390 -34 -578 0 -45 -1 -45 -73 -92 -79 -52 -379
-288 -698 -550 -112 -92 -224 -182 -249 -200 l-45 -33 33 40 c318 386 484 623
670 956 268 478 452 945 601 1523 37 141 41 167 35 230 -4 44 0 114 10 186 24
182 29 295 17 438 -42 518 -253 892 -601 1066 -144 72 -291 106 -457 106 -35
0 -63 2 -63 6 0 3 16 67 34 142 191 758 239 1319 151 1758 -83 412 -284 689
-620 857 -159 79 -291 113 -475 123 -306 17 -577 -79 -802 -286 -222 -203
-432 -573 -562 -990 -96 -309 -196 -789 -241 -1152 -4 -27 -10 -48 -14 -48 -4
0 -54 16 -110 35 -57 20 -155 44 -218 55 -64 11 -117 21 -120 23 -2 2 2 152 8
333 21 596 -10 918 -113 1214 -201 573 -720 839 -1184 609 -446 -221 -694
-822 -671 -1629 10 -321 47 -569 143 -949 30 -117 54 -219 54 -226 0 -9 -24
-16 -75 -20 -42 -4 -78 -5 -81 -2 -3 3 0 59 6 125 15 155 3 312 -50 657 -57
363 -70 494 -70 695 0 445 102 893 296 1299 489 1023 1482 1663 2749 1770 157
14 574 5 735 -14z m494 -1815 c105 -27 225 -85 322 -158 224 -166 343 -397
401 -772 21 -140 24 -525 4 -700 -39 -362 -151 -929 -189 -963 -9 -9 -62 -27
-117 -41 -230 -58 -418 -135 -760 -311 -143 -73 -289 -145 -325 -160 -106 -43
-245 -75 -325 -75 l-73 0 -7 78 c-15 167 -74 335 -169 482 -57 88 -200 237
-285 298 l-64 46 6 160 c12 349 99 846 202 1154 223 668 635 1008 1195 987 60
-3 139 -13 184 -25z m-3051 -175 c312 -81 533 -465 619 -1075 17 -125 18 -660
0 -744 -6 -33 -13 -60 -14 -61 -2 -1 -40 -5 -85 -9 l-83 -6 0 97 c0 198 -40
376 -117 526 -103 200 -255 338 -438 398 -59 19 -180 17 -242 -4 -242 -84
-414 -440 -373 -772 33 -269 116 -457 277 -626 40 -42 73 -80 73 -85 0 -5 -16
-32 -36 -59 -20 -28 -46 -71 -60 -97 -13 -26 -28 -49 -34 -53 -6 -3 -55 4
-109 16 l-99 22 -26 86 c-54 177 -130 581 -162 856 -27 231 -25 629 4 797 50
293 150 503 304 643 68 61 188 126 278 149 74 20 250 20 323 1z m-48 -1069
c197 -98 336 -309 380 -581 17 -101 19 -233 6 -254 -11 -17 -12 -15 -35 119
-40 221 -204 399 -346 375 -125 -21 -224 -173 -237 -365 -7 -107 8 -200 52
-310 l34 -85 -60 -60 -59 -60 -38 21 c-90 52 -210 255 -258 439 -32 124 -36
299 -10 410 34 140 114 268 210 334 67 47 121 62 208 58 65 -3 89 -10 153 -41z
m114 -600 c25 -27 31 -77 11 -101 -33 -40 -110 0 -110 59 0 61 58 86 99 42z
m768 -711 c65 -19 134 -92 153 -160 29 -103 -14 -214 -104 -270 -42 -25 -59
-30 -116 -30 -57 0 -74 4 -115 30 -103 65 -142 209 -85 320 35 68 111 115 201
124 8 0 38 -6 66 -14z m3211 -201 c119 -24 249 -91 331 -172 76 -75 165 -204
216 -315 32 -70 79 -217 69 -217 -3 0 -54 47 -114 104 -124 118 -234 196 -373
261 -145 69 -262 96 -438 102 -228 8 -400 -26 -644 -129 -66 -27 -172 -72
-236 -99 -237 -99 -525 -167 -750 -176 l-147 -6 12 64 11 64 40 3 c80 5 233
35 342 68 114 34 273 96 573 222 281 118 524 196 710 227 108 19 306 18 398
-1z m-4713 -155 l80 -24 -3 -50 c-2 -27 -5 -52 -7 -54 -3 -2 -46 4 -96 13
-115 21 -267 22 -356 1 -88 -21 -200 -75 -268 -131 -30 -24 -55 -39 -55 -32 0
16 52 107 111 195 53 79 35 70 204 102 28 6 109 8 180 7 102 -3 147 -9 210
-27z m-26 -295 c41 -8 78 -19 82 -25 3 -6 9 -36 12 -67 16 -151 104 -363 207
-500 292 -388 858 -583 1378 -476 176 36 377 123 522 225 166 117 333 319 398
482 l27 69 155 -7 c282 -12 518 23 803 119 89 30 196 63 237 75 555 151 1028
10 1328 -396 119 -162 248 -400 297 -550 l27 -82 -20 -58 c-11 -32 -38 -132
-61 -223 -151 -614 -421 -1233 -766 -1755 -98 -148 -320 -450 -424 -575 -91
-109 -431 -460 -541 -558 -123 -110 -194 -156 -425 -272 -317 -161 -568 -248
-812 -284 -531 -77 -1020 131 -1386 590 -114 142 -181 253 -357 594 -204 393
-257 481 -720 1200 -108 168 -226 355 -262 415 -264 444 -403 775 -485 1155
-14 69 -18 130 -18 320 l0 236 67 85 c74 96 135 151 219 198 153 86 303 105
518 65z m8447 -1862 c71 -52 226 -240 312 -378 122 -196 250 -496 295 -690
l15 -61 -127 -17 c-69 -9 -144 -19 -166 -21 l-40 -5 -43 132 c-74 228 -224
532 -393 793 -44 69 -82 131 -85 138 -2 7 26 39 68 75 83 71 106 76 164 34z
m-9567 -322 l34 -29 -74 -78 c-79 -84 -143 -173 -161 -225 -6 -18 -12 -34 -14
-36 -6 -8 -154 68 -154 78 0 7 17 44 37 83 66 125 236 274 282 247 9 -6 31
-23 50 -40z m-1132 -51 c40 -25 33 -41 -25 -60 -92 -29 -278 -144 -409 -251
-94 -78 -135 -132 -239 -319 -96 -172 -186 -313 -278 -436 -60 -81 -62 -83
-96 -77 -54 10 -189 54 -195 64 -8 13 40 133 92 230 87 163 261 414 363 524
145 158 364 283 570 327 117 24 175 24 217 -2z m12292 -832 c84 -262 123 -505
123 -782 1 -194 -7 -256 -65 -525 l-34 -155 -124 3 c-68 1 -151 5 -183 8 l-59
6 5 212 c11 451 -29 842 -117 1137 -14 45 -25 90 -25 99 0 12 29 24 123 48 67
17 163 43 212 56 50 13 93 22 97 20 4 -3 25 -60 47 -127z m-14357 -312 l87
-27 -20 -39 c-11 -22 -55 -104 -98 -182 -250 -458 -393 -860 -467 -1315 -21
-133 -30 -507 -15 -658 36 -354 166 -770 326 -1043 20 -34 43 -77 51 -96 l14
-35 -72 6 c-116 10 -145 28 -199 120 -170 289 -269 590 -326 984 -25 178 -25
708 0 895 40 294 109 577 197 811 79 210 221 475 316 591 l34 42 43 -13 c23
-7 81 -26 129 -41z m14285 -1288 c2 -3 -26 -40 -63 -83 -103 -122 -174 -218
-287 -390 -245 -371 -406 -688 -569 -1114 -67 -174 -92 -227 -203 -420 -158
-276 -275 -439 -430 -599 -266 -275 -545 -444 -939 -570 -149 -48 -264 -66
-354 -57 -74 8 -189 44 -260 81 l-47 25 85 -6 c422 -29 781 250 1075 835 82
165 155 344 245 606 109 315 158 440 241 613 224 467 487 775 827 966 105 59
175 90 263 115 47 13 86 15 234 9 98 -4 179 -9 182 -11z m-11530 -911 c169
-177 337 -421 468 -685 170 -339 291 -691 445 -1291 44 -173 97 -369 116 -435
98 -327 252 -635 452 -905 99 -133 332 -372 442 -452 528 -385 1088 -403 1536
-47 99 79 254 247 330 359 39 58 148 242 241 410 203 364 305 533 466 775 278
416 553 754 776 953 381 338 841 565 1196 588 l80 6 86 -66 c106 -80 245 -209
231 -214 -6 -2 -43 7 -84 20 -63 19 -94 23 -223 23 -169 -1 -257 -15 -421 -70
-453 -151 -922 -558 -1405 -1220 -151 -206 -388 -576 -588 -913 -145 -245
-244 -389 -361 -524 -208 -242 -432 -408 -676 -502 -268 -104 -592 -107 -884
-10 -166 56 -364 167 -534 301 -103 82 -318 301 -419 427 -331 416 -619 971
-782 1506 -221 729 -430 1243 -703 1725 -63 111 -99 153 -198 232 l-86 68 168
16 c264 25 228 33 331 -75z"/>
<path d="M8744 13880 c-87 -34 -184 -134 -184 -189 0 -26 42 -71 66 -71 9 0
44 29 78 64 110 114 202 113 310 -4 33 -36 43 -41 74 -38 50 4 69 41 49 90
-17 42 -93 109 -155 140 -66 32 -169 35 -238 8z"/>
<path d="M8642 13275 c-161 -35 -332 -158 -441 -318 -53 -78 -120 -229 -148
-334 -35 -130 -39 -365 -9 -483 85 -331 295 -529 561 -530 251 0 493 179 631
467 150 313 134 699 -39 961 -134 200 -333 285 -555 237z m211 -175 c240 -74
403 -386 367 -702 -14 -119 -34 -191 -84 -293 -61 -125 -82 -149 -50 -57 56
165 54 321 -5 449 -91 194 -275 225 -443 75 -239 -216 -281 -660 -76 -823 l53
-42 -64 6 c-141 12 -285 124 -360 279 -61 128 -75 191 -74 348 0 165 20 250
92 395 143 288 407 438 644 365z m37 -700 c27 -27 34 -64 18 -97 -11 -23 -20
-29 -55 -31 -33 -2 -44 1 -57 20 -31 44 -10 101 44 121 25 9 29 8 50 -13z"/>
<path d="M5560 13803 c-64 -31 -156 -119 -166 -159 -10 -40 14 -78 51 -82 25
-2 43 8 102 62 112 101 182 101 281 0 58 -59 95 -69 125 -36 31 34 21 78 -29
132 -101 108 -244 141 -364 83z"/>
<path d="M9286 10538 c-26 -37 -20 -67 21 -101 81 -69 186 -173 199 -198 l13
-27 -82 -11 c-110 -16 -281 -61 -403 -106 -225 -85 -407 -176 -784 -393 -366
-211 -569 -302 -841 -376 -324 -88 -644 -91 -871 -10 -151 55 -292 141 -397
245 -30 30 -105 113 -166 184 -191 222 -308 316 -465 375 l-59 22 21 42 c11
22 36 61 54 85 41 53 46 102 12 125 -12 9 -31 16 -42 16 -61 0 -204 -248 -251
-434 -31 -121 -32 -165 -4 -200 44 -56 100 -19 118 79 12 66 59 215 72 229 24
27 229 -164 349 -324 167 -225 298 -512 445 -975 74 -232 134 -372 222 -520
158 -268 362 -479 560 -578 75 -39 206 -76 308 -89 236 -30 503 51 744 225
166 120 297 262 453 492 109 162 171 284 323 640 176 414 269 589 413 785 70
95 254 278 309 308 l42 23 16 -25 c9 -14 28 -80 41 -148 18 -88 31 -129 46
-145 44 -47 108 -15 108 55 -1 90 -41 225 -106 355 -59 118 -93 167 -183 261
-127 131 -199 166 -235 114z"/>
<path d="M6887 7312 c-25 -27 -21 -69 8 -98 35 -35 155 -88 242 -108 90 -20
166 -20 277 -1 158 28 220 81 168 146 l-19 22 -102 -21 c-187 -40 -319 -27
-448 44 -69 38 -102 42 -126 16z"/>
</g>
</svg>
